<svg width="132" height="24" viewBox="0 0 132 24" fill="none" xmlns="http://www.w3.org/2000/svg">
<path fill-rule="evenodd" clip-rule="evenodd" d="M78.848 0.223999C80.192 0.223999 81.12 1.12 81.12 2.416C81.12 3.616 80.192 4.544 78.848 4.544C77.504 4.544 76.544 3.616 76.544 2.416C76.544 1.12 77.504 0.223999 78.848 0.223999ZM80.928 5.584V19.68H76.768V5.584H80.928ZM4.16 7.2V0.799999H0V19.68H4.16V18.032H5.2C5.872 19.216 7.248 19.952 9.136 19.952C12.8 19.952 15.456 17.104 15.456 12.624C15.456 8.512 13.04 5.312 9.104 5.312C7.248 5.312 5.872 6.08 5.168 7.2H4.16ZM11.328 12.608C11.328 14.608 9.904 16.144 7.744 16.144C5.552 16.144 4.16 14.608 4.16 12.608C4.16 10.64 5.552 9.104 7.744 9.104C9.904 9.104 11.328 10.64 11.328 12.608ZM33.856 5.584V9.392H35.84V13.792C35.84 17.872 37.392 19.68 41.744 19.68H43.52V15.872H41.872C40.384 15.872 39.952 15.248 39.952 13.744V9.392H43.504V5.584H39.952V2.32H35.824V5.584H33.856ZM51.04 10.976H54.4V10.928C54.4 9.376 53.408 8.704 51.936 8.704C50.464 8.704 49.712 9.408 49.472 10.368H45.472C45.744 7.44 47.776 5.312 52.016 5.312C56.288 5.312 58.56 7.472 58.56 11.008V19.68H54.4V18.448H53.392C52.736 19.216 51.744 19.952 49.776 19.952C46.816 19.952 45.296 17.984 45.296 15.488C45.296 12.64 47.12 10.976 51.04 10.976ZM51.584 16.528C52.592 16.528 53.52 16.336 54.4 15.792V13.664H51.552C50.208 13.664 49.424 14.16 49.424 15.088C49.424 16.032 50.224 16.528 51.584 16.528ZM60.944 5.584V19.68H65.12V9.904C65.696 9.456 66.48 9.104 67.744 9.104C69.488 9.104 70.256 10.016 70.256 11.792V19.68H74.384V10.896C74.384 7.36 72.688 5.312 69.536 5.312C67.696 5.312 66.848 5.904 66.112 6.784H65.104V5.584H60.944ZM94.272 7.2H93.264C92.56 6.08 91.184 5.312 89.328 5.312C85.392 5.312 82.976 8.512 82.976 12.624C82.976 17.104 85.632 19.952 89.296 19.952C91.184 19.952 92.544 19.216 93.232 18.032H94.272V23.776H98.432V5.584H94.272V7.2ZM94.272 12.608C94.272 14.608 92.88 16.144 90.688 16.144C88.528 16.144 87.104 14.608 87.104 12.608C87.104 10.64 88.528 9.104 90.688 9.104C92.88 9.104 94.272 10.64 94.272 12.608ZM100.816 14.368V5.584H104.944V13.472C104.944 15.248 105.712 16.16 107.456 16.16C108.72 16.16 109.504 15.808 110.08 15.36V5.584H114.24V19.68H110.08V18.48H109.072C108.336 19.36 107.488 19.952 105.648 19.952C102.512 19.952 100.816 17.904 100.816 14.368ZM123.856 5.296C119.312 5.296 116.304 8.496 116.304 12.608C116.304 16.72 119.312 19.952 123.856 19.936C127.808 19.936 130.352 17.856 131.168 14.976H127.008C126.544 15.984 125.408 16.528 123.856 16.528C121.808 16.528 120.544 15.44 120.304 13.552H131.312C131.315 13.4981 131.319 13.4397 131.323 13.3774V13.3773V13.377C131.339 13.1254 131.36 12.8101 131.36 12.464C131.36 8.528 128.56 5.296 123.856 5.296ZM123.856 8.688C125.632 8.688 126.736 9.632 127.168 10.912H120.464C120.896 9.584 122.112 8.688 123.856 8.688ZM24.016 18.912C23.92 18.128 24.48 17.408 25.28 17.312C26.064 17.216 26.784 17.776 26.88 18.576C26.976 19.36 26.416 20.08 25.616 20.176C25.584 20.176 25.556 20.18 25.528 20.184C25.5 20.188 25.472 20.192 25.44 20.192C24.72 20.176 24.096 19.632 24.016 18.912ZM22.016 19.728C21.264 19.44 20.896 18.608 21.184 17.872C21.472 17.12 22.304 16.752 23.04 17.04C23.776 17.328 24.16 18.16 23.872 18.896C23.648 19.472 23.104 19.824 22.528 19.824C22.352 19.824 22.176 19.792 22.016 19.728ZM27.008 18.512C26.56 17.856 26.72 16.96 27.376 16.512C28.032 16.064 28.928 16.224 29.376 16.88C29.824 17.536 29.664 18.432 29.008 18.88C28.752 19.056 28.464 19.136 28.192 19.136C27.728 19.136 27.28 18.912 27.008 18.512ZM19.024 17.664C18.496 17.072 18.544 16.16 19.136 15.632C19.728 15.104 20.64 15.152 21.168 15.744C21.696 16.336 21.648 17.248 21.056 17.776C20.784 18.016 20.448 18.144 20.096 18.144C19.696 18.16 19.312 17.984 19.024 17.664ZM29.472 16.768C28.768 16.4 28.496 15.52 28.864 14.816C29.232 14.112 30.112 13.84 30.816 14.208C31.52 14.576 31.792 15.456 31.424 16.16C31.168 16.656 30.672 16.928 30.144 16.928C29.904 16.928 29.68 16.88 29.472 16.768ZM17.328 14.464C17.136 13.696 17.616 12.912 18.384 12.72C19.152 12.528 19.936 13.008 20.128 13.776C20.32 14.544 19.84 15.328 19.072 15.52C18.96 15.552 18.848 15.568 18.72 15.568C18.08 15.552 17.488 15.12 17.328 14.464ZM29.392 12.64C29.392 11.824 30.032 11.184 30.832 11.184C31.632 11.184 32.272 11.824 32.272 12.624V12.64C32.272 13.44 31.632 14.08 30.832 14.08C30.048 14.08 29.392 13.424 29.392 12.64ZM18.384 12.576C17.616 12.384 17.136 11.6 17.328 10.832C17.52 10.064 18.304 9.584 19.072 9.776C19.84 9.968 20.32 10.736 20.128 11.52C19.968 12.176 19.376 12.624 18.736 12.624C18.6959 12.619 18.6575 12.6156 18.6201 12.6122C18.5379 12.6049 18.461 12.598 18.384 12.576ZM28.848 10.432C28.48 9.728 28.736 8.864 29.44 8.48C30.144 8.112 31.008 8.368 31.392 9.072C31.76 9.776 31.504 10.64 30.8 11.024C30.592 11.136 30.352 11.2 30.128 11.2C29.616 11.2 29.12 10.928 28.848 10.432ZM19.136 9.648C18.544 9.12 18.48 8.208 19.008 7.616C19.536 7.024 20.448 6.96 21.04 7.488C21.632 8.016 21.696 8.928 21.168 9.52C20.88 9.84 20.48 10 20.08 10C19.744 10 19.408 9.888 19.136 9.648ZM27.36 8.752C26.704 8.304 26.544 7.408 26.992 6.752C27.44 6.096 28.336 5.936 28.992 6.384C29.648 6.832 29.808 7.728 29.36 8.384C29.088 8.784 28.624 9.008 28.176 9.008C27.888 9.008 27.6 8.928 27.36 8.752ZM21.152 7.408C20.864 6.672 21.248 5.824 21.984 5.552C22.72 5.264 23.552 5.648 23.84 6.384C24.128 7.12 23.744 7.952 23.008 8.24C22.832 8.304 22.672 8.336 22.496 8.336C21.92 8.336 21.376 7.984 21.152 7.408ZM25.248 7.968C24.464 7.872 23.888 7.152 23.984 6.368C24.08 5.584 24.8 5.008 25.584 5.104C26.368 5.2 26.944 5.92 26.848 6.704C26.768 7.44 26.144 7.968 25.424 7.968H25.248ZM21.968 14.496C21.568 15.184 21.808 16.064 22.496 16.464C22.72 16.592 22.96 16.656 23.216 16.656C23.712 16.656 24.192 16.4 24.464 15.936C24.864 15.248 24.624 14.368 23.936 13.968C23.248 13.568 22.368 13.808 21.968 14.496ZM25.472 13.968C24.784 14.368 24.544 15.248 24.944 15.936C25.2 16.4 25.696 16.656 26.192 16.656C26.432 16.656 26.688 16.592 26.912 16.464C27.6 16.064 27.84 15.184 27.44 14.496C27.04 13.808 26.16 13.568 25.472 13.968ZM21.712 11.2C20.912 11.2 20.272 11.84 20.272 12.64C20.272 13.44 20.928 14.08 21.712 14.08C22.512 14.08 23.152 13.44 23.152 12.64C23.152 11.84 22.512 11.2 21.712 11.2ZM26.224 12.624V12.672C26.256 13.44 26.88 14.08 27.664 14.08C28.464 14.08 29.104 13.44 29.104 12.64V12.624C29.104 11.824 28.464 11.184 27.664 11.184C26.864 11.184 26.224 11.824 26.224 12.624ZM22.48 8.816C21.792 9.216 21.552 10.096 21.952 10.784C22.224 11.248 22.704 11.504 23.2 11.504C23.44 11.504 23.696 11.44 23.92 11.312C24.608 10.912 24.848 10.032 24.448 9.344C24.048 8.656 23.168 8.416 22.48 8.816ZM24.928 9.328C24.528 10.016 24.768 10.896 25.456 11.296C25.68 11.424 25.936 11.488 26.176 11.488C26.672 11.488 27.152 11.232 27.424 10.768C27.824 10.08 27.584 9.2 26.896 8.8C26.208 8.4 25.328 8.64 24.928 9.328Z" fill="black"/>
</svg>
