<svg width="40" height="40" viewBox="0 0 40 40" fill="none" xmlns="http://www.w3.org/2000/svg">
<g opacity="0.6">
<path fill-rule="evenodd" clip-rule="evenodd" d="M27.1231 20.936C27.1591 20.636 27.1831 20.324 27.1831 20C27.1831 19.676 27.1591 19.364 27.1111 19.064L29.1391 17.48C29.3191 17.336 29.3671 17.072 29.2591 16.868L27.3391 13.544C27.2191 13.328 26.9671 13.256 26.7511 13.328L24.3631 14.288C23.8591 13.904 23.3311 13.592 22.7431 13.352L22.3831 10.808C22.3471 10.568 22.1431 10.4 21.9031 10.4H18.0631C17.8231 10.4 17.6311 10.568 17.5951 10.808L17.2351 13.352C16.6471 13.592 16.1071 13.916 15.6151 14.288L13.2271 13.328C13.0111 13.244 12.7591 13.328 12.6391 13.544L10.7191 16.868C10.5991 17.084 10.6471 17.336 10.8391 17.48L12.8671 19.064C12.8191 19.364 12.7831 19.688 12.7831 20C12.7831 20.312 12.8071 20.636 12.8551 20.936L10.8271 22.52C10.6471 22.664 10.5991 22.928 10.7071 23.132L12.6271 26.456C12.7471 26.672 12.9991 26.744 13.2151 26.672L15.6031 25.712C16.1071 26.096 16.6351 26.408 17.2231 26.648L17.5831 29.192C17.6311 29.432 17.8231 29.6 18.0631 29.6H21.9031C22.1431 29.6 22.3471 29.432 22.3711 29.192L22.7311 26.648C23.3191 26.408 23.8591 26.084 24.3511 25.712L26.7391 26.672C26.9551 26.756 27.2071 26.672 27.3271 26.456L29.2471 23.132C29.3671 22.916 29.3191 22.664 29.1271 22.52L27.1231 20.936ZM19.9831 23.6C18.0031 23.6 16.3831 21.98 16.3831 20C16.3831 18.02 18.0031 16.4 19.9831 16.4C21.9631 16.4 23.5831 18.02 23.5831 20C23.5831 21.98 21.9631 23.6 19.9831 23.6Z" fill="black" fill-opacity="0.87"/>
</g>
</svg>
