<svg width="41" height="40" viewBox="0 0 41 40" fill="none" xmlns="http://www.w3.org/2000/svg">
<g clip-path="url(#clip0_5_2076)">
<path d="M16.08 12.08L14.65 10.65C12.25 12.48 10.67 15.3 10.53 18.5H12.53C12.68 15.85 14.04 13.53 16.08 12.08V12.08ZM28.47 18.5H30.47C30.32 15.3 28.74 12.48 26.35 10.65L24.93 12.08C26.95 13.53 28.32 15.85 28.47 18.5ZM26.5 19C26.5 15.93 24.86 13.36 22 12.68V12C22 11.17 21.33 10.5 20.5 10.5C19.67 10.5 19 11.17 19 12V12.68C16.13 13.36 14.5 15.92 14.5 19V24L12.5 26V27H28.5V26L26.5 24V19ZM20.5 30C20.64 30 20.77 29.99 20.9 29.96C21.55 29.82 22.08 29.38 22.34 28.78C22.44 28.54 22.49 28.28 22.49 28H18.49C18.5 29.1 19.39 30 20.5 30Z" fill="black" fill-opacity="0.6"/>
</g>
<defs>
<clipPath id="clip0_5_2076">
<rect width="24" height="24" fill="white" transform="translate(8.5 8)"/>
</clipPath>
</defs>
</svg>
