<svg width="41" height="40" viewBox="0 0 41 40" fill="none" xmlns="http://www.w3.org/2000/svg">
<g clip-path="url(#clip0_5_2283)">
<path d="M28.5 26.69L16.34 14.14L13.77 11.49L12.5 12.76L15.3 15.56V15.57C14.78 16.56 14.5 17.73 14.5 18.99V23.99L12.5 25.99V26.99H26.23L28.23 28.99L29.5 27.72L28.5 26.69V26.69ZM20.5 30C21.61 30 22.5 29.11 22.5 28H18.5C18.5 29.11 19.39 30 20.5 30ZM26.5 22.68V19C26.5 15.92 24.86 13.36 22 12.68V12C22 11.17 21.33 10.5 20.5 10.5C19.67 10.5 19 11.17 19 12V12.68C18.85 12.71 18.71 12.76 18.58 12.8C18.48 12.83 18.38 12.87 18.28 12.91H18.27C18.26 12.91 18.26 12.91 18.25 12.92C18.02 13.01 17.79 13.12 17.57 13.23C17.57 13.23 17.56 13.23 17.56 13.24L26.5 22.68Z" fill="black" fill-opacity="0.6"/>
</g>
<defs>
<clipPath id="clip0_5_2283">
<rect width="24" height="24" fill="white" transform="translate(8.5 8)"/>
</clipPath>
</defs>
</svg>
